<svg fill="#000000" xmlns="http://www.w3.org/2000/svg" viewBox="0 0 30 30" width="30px" height="30px"><path d="M24,4H6C4.895,4,4,4.895,4,6v18c0,1.105,0.895,2,2,2h18c1.105,0,2-0.895,2-2V6C26,4.895,25.105,4,24,4z M24,12h-4.537C20.416,13.062,21,14.461,21,16c0,3.314-2.686,6-6,6s-6-2.686-6-6c0-1.539,0.584-2.938,1.537-4H6V6h18V12z"/><path d="M15 11c2.757 0 5 2.243 5 5s-2.243 5-5 5-5-2.243-5-5S12.243 11 15 11M15 9c-3.866 0-7 3.134-7 7s3.134 7 7 7 7-3.134 7-7S18.866 9 15 9L15 9zM21 8H23V10H21z"/><path d="M15,13c-0.463,0-0.896,0.114-1.288,0.301C13.889,13.481,14,13.727,14,14c0,0.552-0.448,1-1,1c-0.273,0-0.519-0.111-0.699-0.288C12.114,15.104,12,15.537,12,16c0,1.657,1.343,3,3,3s3-1.343,3-3S16.657,13,15,13z"/></svg>