<svg fill="#292929" xmlns="http://www.w3.org/2000/svg" viewBox="0 0 26 26" width="26px" height="26px"><path fill-rule="evenodd" d="M5.096,0h15.809C23.707,0,26,2.293,26,5.094v15.813 C26,23.707,23.707,26,20.904,26H5.096C2.293,26,0,23.707,0,20.906V5.094C0,2.293,2.293,0,5.096,0L5.096,0z M19.296,15.736 c0-0.958-0.263-1.721-0.786-2.287c-0.524-0.566-1.222-0.938-2.093-1.123v-0.074c0.606-0.254,1.079-0.648,1.424-1.188 c0.345-0.537,0.518-1.148,0.518-1.837c0-0.595-0.129-1.119-0.377-1.574c-0.247-0.452-0.626-0.818-1.131-1.091 c-0.465-0.252-0.966-0.417-1.501-0.494c-0.534-0.08-1.318-0.12-2.353-0.12h-5.06v14.108h5.721c0.98,0,1.784-0.088,2.418-0.265 c0.638-0.178,1.222-0.474,1.752-0.889c0.448-0.35,0.805-0.786,1.069-1.316C19.163,17.054,19.296,16.438,19.296,15.736L19.296,15.736 z M14.759,9.939c0-0.229-0.059-0.461-0.176-0.702c-0.115-0.238-0.296-0.414-0.547-0.521c-0.234-0.104-0.506-0.158-0.826-0.169 c-0.321-0.008-0.798-0.012-1.428-0.012h-0.246v2.985h0.447c0.604,0,1.029-0.007,1.272-0.02c0.243-0.014,0.497-0.078,0.756-0.196 c0.28-0.132,0.479-0.318,0.584-0.551C14.704,10.519,14.759,10.247,14.759,9.939L14.759,9.939z M15.646,15.671 c0-0.436-0.085-0.775-0.264-1.022c-0.177-0.25-0.443-0.433-0.798-0.558c-0.212-0.087-0.509-0.131-0.884-0.141 s-0.88-0.014-1.509-0.014h-0.655v3.532h0.191c0.922,0,1.559-0.005,1.911-0.02c0.353-0.013,0.716-0.097,1.081-0.255 c0.321-0.141,0.556-0.343,0.705-0.609C15.572,16.316,15.646,16.01,15.646,15.671z" clip-rule="evenodd"/></svg>